<svg xmlns="http://www.w3.org/2000/svg" viewBox="0 0 100 100">
  <!-- Fundo Redondo Vermelho Zaplandia -->
  <circle cx="50" cy="50" r="50" fill="#ef4444"/>
  
  <!-- Balão Branco (Contorno do Chat) -->
  <path d="M50 22c-15.5 0-28 12.5-28 28 0 5 1.3 9.7 3.6 13.8L22 78l14.4-3.6c4.1 2.3 8.8 3.6 13.6 3.6 15.5 0 28-12.5 28-28S65.5 22 50 22zm0 50c-4.1 0-8-1-11.5-2.9l-1-.5-6 1.5 1.5-5.9-.6-.9c-1.9-3.2-2.9-6.8-2.9-10.6 0-10.8 8.8-19.6 19.6-19.6S69.6 32.8 69.6 43.6 60.8 63.2 50 63.2z" fill="white"/>
  
  <!-- Letra Z Branca Centralizada -->
  <text x="50" y="60" font-family="Arial, sans-serif" font-size="28" font-weight="900" text-anchor="middle" fill="white">Z</text>
</svg>
