<svg xmlns="http://www.w3.org/2000/svg" viewBox="0 0 100 100">
  <!-- Fundo Redondo Vermelho Zaplandia -->
  <circle cx="50" cy="50" r="50" fill="#ef4444"/>
  
  <!-- Balão Branco (Contorno e Rabicho) -->
  <path d="M50 25c-13.8 0-25 11.2-25 25 0 3.7.8 7.2 2.2 10.3L22 75l14.7-5.2c2.8 1.4 6 2.2 9.3 2.2 13.8 0 25-11.2 25-25S63.8 25 50 25zm0 44c-2.7 0-5.3-.6-7.7-1.7l-1.1-.5-6.1 2.2 2.2-5.9-.6-1c-1.3-2.3-2-4.9-2-7.6 0-10.5 8.5-19 19-19s19 8.5 19 19-8.5 19-19 19z" fill="white"/>
  
  <!-- Letra Z Branca no Centro -->
  <text x="50" y="60.5" font-family="Arial, sans-serif" font-size="26" font-weight="900" text-anchor="middle" fill="white">Z</text>
</svg>
